# AST/ASF file generated using VICON BodyLanguage
# -----------------------------------------------
:version 1.10
:name VICON
:units
  mass 1.0
  length 0.45
  angle deg
:documentation
   .ast/.asf automatically generated from VICON data using
   VICON BodyBuilder and BodyLanguage model FoxedUp or BRILLIANT.MOD
:root
   order TX TY TZ RX RY RZ
   axis XYZ
   position 0 0 0  
   orientation 0 0 0 
:bonedata
  begin
     id 1 
     name lhipjoint
     direction 0.722297 -0.617336 0.311742 
     length 2.6635 
     axis 0 0 0  XYZ
  end
  begin
     id 2 
     name lfemur
     direction 0.34202 -0.939693 0  
     length 7.39349  
     axis 0 0 20  XYZ
    dof rx ry rz
    limits (-160.0 20.0)
           (-70.0 70.0)
           (-60.0 70.0)
  end
  begin
     id 3 
     name ltibia
     direction 0.34202 -0.939693 0   
     length 7.36294   
     axis 0 0 20   XYZ
    dof rx
    limits (-10.0 170.0)
  end
  begin
     id 4 
     name lfoot
     direction 0.104879 -0.288152 0.951824   
     length 2.16981   
     axis -90 7.62852e-016 20   XYZ
    dof rx rz
    limits (-45.0 90.0)
           (-70.0 20.0)
  end
  begin
     id 5 
     name ltoes
     direction 1.53586e-011 -4.21895e-011 1   
     length 1.08218   
     axis -90 7.62852e-016 20   XYZ
    dof rx
    limits (-90.0 20.0)
  end
  begin
     id 6 
     name rhipjoint
     direction -0.75102 -0.589393 0.297631   
     length 2.78977  
     axis 0 0 0  XYZ 
  end
  begin
     id 7 
     name rfemur
     direction -0.34202 -0.939693 0   
     length 7.46076   
     axis 0 0 -20   XYZ
    dof rx ry rz
    limits (-160.0 20.0)
           (-70.0 70.0)
           (-70.0 60.0)
  end
  begin
     id 8 
     name rtibia
     direction -0.34202 -0.939693 0   
     length 7.31726   
     axis 0 0 -20   XYZ
    dof rx
    limits (-10.0 170.0)
 end
 begin
     id 9 
     name rfoot
     direction -0.107991 -0.296704 0.948844   
     length 2.09388  
     axis -90 -7.62852e-016 -20   XYZ
    dof rx rz
    limits (-45.0 90.0)
           (-20.0 70.0)
  end
  begin
     id 10 
     name rtoes
     direction -1.53559e-011 -4.21911e-011 1   
     length 1.04433   
     axis -90 -7.62852e-016 -20   XYZ
    dof rx
    limits (-90.0 20.0)
  end
  begin
     id 11 
     name lowerback
     direction 0.0165164 0.98272 0.184358   
     length 1.71896   
     axis 0 0 0   XYZ
    dof rx ry rz
    limits (-20.0 45.0)
           (-30.0 30.0)
           (-30.0 30.0)
  end
  begin
     id 12 
     name upperback
     direction -0.00887249 0.992297 0.123566   
     length 1.71504   
     axis 0 0 0   XYZ
    dof rx ry rz
    limits (-20.0 45.0)
           (-30.0 30.0)
           (-30.0 30.0)
  end
  begin
     id 13 
     name thorax
     direction -0.0157026 0.998908 0.0440032   
     length 1.77022   
     axis 0 0 0   XYZ
    dof rx ry rz
    limits (-20.0 45.0)
           (-30.0 30.0)
           (-30.0 30.0)
  end
  begin
     id 14 
     name lowerneck
     direction -0.0238856 0.998137 0.0561411   
     length 1.89341   
     axis 0 0 0   XYZ
    dof rx ry rz
    limits (-20.0 45.0)
           (-30.0 30.0)
           (-30.0 30.0)
  end
  begin
     id 15 
     name upperneck
     direction 0.0276574 0.952253 -0.304056   
     length 1.86999   
     axis 0 0 0   XYZ
    dof rx ry rz
    limits (-20.0 45.0)
           (-30.0 30.0)
           (-30.0 30.0)
  end
  begin
     id 16
     name head
     direction 0.00800083 0.994258 -0.106712  
     length 1.91492  
     axis 0 0 0   XYZ
    dof rx ry rz
    limits (-20.0 45.0)
           (-30.0 30.0)
           (-30.0 30.0)
  end
  begin
     id 17 
     name lclavicle
     direction 0.97203 0.225407 0.06595  
     length 3.34889  
     axis 0 0 0   XYZ
    dof ry rz
    limits (-20.0 10.0)
           (0.0 20.0)
  end
  begin
     id 18 
     name lhumerus
     direction 1 -4.48973e-011 2.20267e-027   
     length 4.85645   
     axis 180 -30 -90   XYZ
    dof rx ry rz
    limits (-60.0 90.0)
           (-90.0 90.0)
           (-90.0 90.0)
  end
  begin
     id 19
     name lradius
     direction 1 -4.4897e-011 4.60472e-027   
     length 2.79874   
     axis 180 -30 -90   XYZ
    dof rx
    limits (-10.0 170.0)
  end
  begin
     id 20
     name lwrist
     direction 1 -4.48952e-011 1.14928e-026   
     length 1.39937   
     axis -6.29373e-015 90 90   XYZ
    dof ry
    limits (-180.0 0.0)
 end
  begin
     id 21 
     name lhand
     direction 1 -4.48967e-011 2.29886e-026   
     length 0.573398   
     axis -1.46689e-014 90 90   XYZ
    dof rx rz
    limits (-90.0 90.0)
           (-45.0 45.0)
  end
  begin
     id 22 
     name lfingers
     direction 1 -4.48955e-011 4.59726e-026   
     length 0.462289   
     axis -2.93383e-014 90 90   XYZ
    dof rx
    limits (0.0 90.0)
  end
  begin
     id 23
     name lthumb
     direction 0.707107 -6.34866e-011 0.707107   
     length 0.663757   
     axis -90 45 5.69224e-014   XYZ
    dof rx rz
    limits (-45.0 45.0)
           (-45.0 45.0)
  end
  begin
     id 24 
     name rclavicle
     direction -0.981571 0.157346 0.108443   
     length 3.35257  
     axis 0 0 0   XYZ 
    dof ry rz
    limits (-10.0 20.0)
           (-20.0 0.0)
  end
  begin
     id 25 
     name rhumerus
     direction -1 -4.48967e-011 8.58308e-029  
     length 4.67018   
     axis 180 30 90   XYZ
    dof rx ry rz
    limits (-90.0 60.0)
           (-90.0 90.0)
           (-90.0 90.0)
  end
  begin
     id 26 
     name rradius
     direction -1 -4.48958e-011 4.52548e-027   
     length 2.65534   
     axis 180 30 90   XYZ
    dof rx
    limits (-10.0 170.0)
  end
  begin
     id 27 
     name rwrist
     direction -1 -4.48977e-011 1.14952e-026   
     length 1.32767   
     axis -6.29373e-015 -90 -90   XYZ
    dof ry
    limits (-180.0 0.0)
  end
  begin
     id 28
     name rhand
     direction -1 -4.48924e-011 2.29804e-026   
     length 0.594069   
     axis -1.46689e-014 -90 -90   XYZ
    dof rx rz
    limits (-90.0 90.0)
           (-45.0 45.0)
  end
  begin
     id 29
     name rfingers
     direction -1 -4.48998e-011 4.59888e-026   
     length 0.478954   
     axis -2.93383e-014 -90 -90   XYZ
    dof rx
    limits (0.0 90.0)
  end
  begin
     id 30
     name rthumb
     direction -0.707107 -6.34933e-011 0.707107   
     length 0.687685   
     axis -90 -45 -5.69224e-014   XYZ
    dof rx rz
    limits (-45.0 45.0)
           (-45.0 45.0)
  end
:hierarchy
  begin
    root lhipjoint rhipjoint lowerback
    lhipjoint lfemur
    lfemur ltibia
    ltibia lfoot
    lfoot ltoes
    rhipjoint rfemur
    rfemur rtibia
    rtibia rfoot
    rfoot rtoes
    lowerback upperback
    upperback thorax
    thorax lowerneck lclavicle rclavicle
    lowerneck upperneck
    upperneck head
    lclavicle lhumerus
    lhumerus lradius
    lradius lwrist
    lwrist lhand lthumb
    lhand lfingers
    rclavicle rhumerus
    rhumerus rradius
    rradius rwrist
    rwrist rhand rthumb
    rhand rfingers
  end

#!OML:ASF E:\pregnant2\Project 1\Capture day 1\Session 1\pregnant2.ASF
:FULLY-SPECIFIED
:DEGREES
487
root -5.80205 9.53786 23.232 41.6185 19.1304 -9.10915
lowerback 5.52353 1.47142 2.59206
upperback -1.80655 1.92869 -5.19501
thorax -4.72363 0.803764 -7.10519
lowerneck -19.3534 3.87889 0.952422
upperneck 30.2047 7.51748 -6.04495
head 13.7977 2.55467 -1.2451
rclavicle 2.22639e-014 -1.74931e-014
rhumerus 27.3265 38.8273 -64.0862
rradius 36.4095
rwrist 16.1792
rhand -10.9899 -10.5316
rfingers 7.12502
rthumb 15.0303 -39.966
lclavicle 2.22639e-014 -1.74931e-014
lhumerus -12.7994 1.96226 69.1066
lradius 20.3905
lwrist -12.0468
lhand -18.3443 25.8874
lfingers 7.12502
lthumb 7.93805 55.7184
rfemur -116.5 -12.4181 57.4709
rtibia 136.045
rfoot -26.6994 -5.27819
rtoes -19.5428
lfemur -129.295 6.19596 -28.1611
ltibia 132.983
lfoot -29.9122 -0.358706
ltoes -5.39588
488
root -5.80841 9.46531 23.2368 41.2037 19.1886 -9.25357
lowerback 5.53881 1.49454 2.56651
upperback -1.80585 1.95507 -5.25982
thorax -4.72672 0.81673 -7.16327
lowerneck -19.3203 3.90782 0.981542
upperneck 30.2203 7.50984 -5.92192
head 13.7906 2.57182 -1.20332
rclavicle 1.90833e-014 -2.06736e-014
rhumerus 27.1828 38.9717 -64.2093
rradius 36.4987
rwrist 16.2284
rhand -10.9345 -10.4314
rfingers 7.12502
rthumb 15.0836 -39.8619
lclavicle 1.90833e-014 -2.06736e-014
lhumerus -13.148 2.15619 68.8419
lradius 20.3439
lwrist -12.0838
lhand -18.5504 26.0741
lfingers 7.12502
lthumb 7.73913 55.9125
rfemur -116.535 -12.473 57.6068
rtibia 136.718
rfoot -26.4274 -5.4388
rtoes -19.318
lfemur -129.572 6.44959 -28.1877
ltibia 133.739
lfoot -29.8432 -0.549531
ltoes -5.79726
489
root -5.81502 9.39319 23.2414 40.7905 19.2528 -9.3969
lowerback 5.55327 1.51802 2.54029
upperback -1.80688 1.98173 -5.32722
thorax -4.73103 0.829761 -7.22388
lowerneck -19.2848 3.92863 1.00707
upperneck 30.2333 7.48978 -5.79389
head 13.7807 2.58411 -1.16119
rclavicle 3.02153e-014 7.31528e-014
rhumerus 27.0258 39.1048 -64.3351
rradius 36.5853
rwrist 16.2586
rhand -10.8993 -10.3398
rfingers 7.12502
rthumb 15.1175 -39.7677
lclavicle 3.02153e-014 7.31528e-014
lhumerus -13.4923 2.3589 68.5633
lradius 20.2947
lwrist -12.1542
lhand -18.7729 26.2695
lfingers 7.12502
lthumb 7.52438 56.1157
rfemur -116.576 -12.5372 57.7526
rtibia 137.383
rfoot -26.1376 -5.60055
rtoes -19.06
lfemur -129.856 6.71292 -28.207
ltibia 134.485
lfoot -29.7653 -0.776932
ltoes -6.2053
490
root -5.82184 9.32177 23.2461 40.374 19.3197 -9.54267
lowerback 5.5685 1.54297 2.51329
upperback -1.80863 2.01018 -5.39682
thorax -4.7362 0.843637 -7.28669
lowerneck -19.2467 3.9425 1.02941
upperneck 30.2456 7.45895 -5.66045
head 13.7692 2.59228 -1.11833
rclavicle 3.18055e-015 -2.54444e-014
rhumerus 26.8671 39.2437 -64.4416
rradius 36.676
rwrist 16.2422
rhand -10.8877 -10.2668
rfingers 7.12502
rthumb 15.1287 -39.6939
lclavicle 3.18055e-015 -2.54444e-014
lhumerus -13.8351 2.5793 68.2678
lradius 20.242
lwrist -12.2744
lhand -19.0186 26.4705
lfingers 7.12502
lthumb 7.28724 56.325
rfemur -116.611 -12.6095 57.9092
rtibia 138.036
rfoot -25.8515 -5.75456
rtoes -18.8176
lfemur -130.143 6.99468 -28.2227
ltibia 135.221
lfoot -29.6824 -1.03902
ltoes -6.64167
491
root -5.82888 9.25096 23.2503 39.9571 19.395 -9.69018
lowerback 5.58323 1.56845 2.48855
upperback -1.81086 2.03946 -5.46749
thorax -4.74133 0.857843 -7.3521
lowerneck -19.2066 3.94997 1.05413
upperneck 30.255 7.41768 -5.52644
head 13.7556 2.5965 -1.07754
rclavicle 6.36111e-015 -5.725e-014
rhumerus 26.6971 39.3699 -64.5459
rradius 36.7669
rwrist 16.2122
rhand -10.8888 -10.1964
rfingers 7.12502
rthumb 15.1276 -39.6236
lclavicle 6.36111e-015 -5.725e-014
lhumerus -14.1744 2.81583 67.9564
lradius 20.1887
lwrist -12.4347
lhand -19.2801 26.6794
lfingers 7.12502
lthumb 7.0348 56.5425
rfemur -116.647 -12.6906 58.0825
rtibia 138.676
rfoot -25.5864 -5.89941
rtoes -18.6267
lfemur -130.438 7.28565 -28.2318
ltibia 135.947
lfoot -29.5879 -1.32653
ltoes -7.10493
492
root -5.83581 9.18095 23.2555 39.5197 19.4424 -9.8615
lowerback 5.59055 1.60695 2.45961
upperback -1.8093 2.0857 -5.54382
thorax -4.73569 0.880986 -7.42219
lowerneck -19.1633 3.9538 1.08385
upperneck 30.261 7.36792 -5.38892
head 13.7396 2.5983 -1.03777
rclavicle -1.59028e-015 -8.11041e-014
rhumerus 26.5086 39.4647 -64.6701
rradius 36.8559
rwrist 16.2143
rhand -10.8543 -10.1103
rfingers 7.12502
rthumb 15.1608 -39.5349
lclavicle -1.59028e-015 -8.11041e-014
lhumerus -14.5125 3.097 67.6172
lradius 20.1336
lwrist -12.6492
lhand -19.5539 26.8895
lfingers 7.12502
lthumb 6.7705 56.7613
rfemur -116.625 -12.7386 58.2435
rtibia 139.299
rfoot -25.3516 -6.05111
rtoes -18.4866
lfemur -130.724 7.65496 -28.2592
ltibia 136.675
lfoot -29.5186 -1.66681
ltoes -7.57917
493
root -5.84272 9.11139 23.2612 39.0718 19.4714 -10.0493
lowerback 5.59668 1.65078 2.43152
upperback -1.81074 2.13885 -5.62538
thorax -4.73123 0.907389 -7.49916
lowerneck -19.1143 3.95746 1.11469
upperneck 30.2636 7.3152 -5.24536
head 13.7206 2.59998 -0.996438
rclavicle -7.15625e-014 3.02153e-014
rhumerus 26.3076 39.5498 -64.8066
rradius 36.9437
rwrist 16.2241
rhand -10.7992 -10.0057
rfingers 7.12502
rthumb 15.2139 -39.4263
lclavicle -7.15625e-014 3.02153e-014
lhumerus -14.8582 3.40912 67.2475
lradius 20.083
lwrist -12.8642
lhand -19.8274 27.1109
lfingers 7.12502
lthumb 6.50647 56.9909
rfemur -116.568 -12.7557 58.3988
rtibia 139.905
rfoot -25.1541 -6.20717
rtoes -18.4165
lfemur -131.012 8.07951 -28.3051
ltibia 137.402
lfoot -29.4625 -2.03523
ltoes -8.06381
494
root -5.84973 9.04231 23.2672 38.617 19.4832 -10.2476
lowerback 5.59909 1.70075 2.39612
upperback -1.81195 2.19955 -5.71009
thorax -4.72334 0.937862 -7.5758
lowerneck -19.063 3.96059 1.14935
upperneck 30.2617 7.26038 -5.10266
head 13.6994 2.60123 -0.956523
rclavicle -3.81667e-014 7.31528e-014
rhumerus 26.1056 39.6349 -64.933
rradius 37.0319
rwrist 16.2143
rhand -10.7578 -9.89844
rfingers 7.12502
rthumb 15.2538 -39.316
lclavicle -3.81667e-014 7.31528e-014
lhumerus -15.2125 3.74942 66.8563
lradius 20.046
lwrist -13.0638
lhand -20.1044 27.3363
lfingers 7.12502
lthumb 6.23905 57.2245
rfemur -116.483 -12.7431 58.5486
rtibia 140.497
rfoot -24.9668 -6.38102
rtoes -18.3319
lfemur -131.301 8.54914 -28.3754
ltibia 138.124
lfoot -29.42 -2.42465
ltoes -8.55043
495
root -5.85715 8.97369 23.2729 38.1642 19.4944 -10.4437
lowerback 5.6037 1.75022 2.35217
upperback -1.81489 2.25882 -5.79593
thorax -4.71888 0.967736 -7.64884
lowerneck -19.0097 3.96284 1.1794
upperneck 30.2545 7.20409 -4.95578
head 13.6751 2.60203 -0.914488
rclavicle 1.59028e-015 -3.33958e-014
rhumerus 25.9021 39.7028 -65.0545
rradius 37.1159
rwrist 16.2216
rhand -10.7121 -9.78786
rfingers 7.12502
rthumb 15.2978 -39.2021
lclavicle 1.59028e-015 -3.33958e-014
lhumerus -15.5779 4.08574 66.4493
lradius 20.0258
lwrist -13.2092
lhand -20.3917 27.5777
lfingers 7.12502
lthumb 5.96167 57.4738
rfemur -116.397 -12.72 58.7055
rtibia 141.079
rfoot -24.7871 -6.5707
rtoes -18.257
lfemur -131.596 9.02865 -28.465
ltibia 138.834
lfoot -29.3812 -2.8213
ltoes -9.02023
496
root -5.86496 8.9057 23.2781 37.7163 19.5079 -10.6355
lowerback 5.61094 1.79904 2.30039
upperback -1.81968 2.31657 -5.88139
thorax -4.7183 0.996933 -7.71708
lowerneck -18.9532 3.96363 1.2051
upperneck 30.2424 7.14719 -4.80966
head 13.6482 2.60216 -0.872201
rclavicle 6.52014e-014 -4.45278e-014
rhumerus 25.7068 39.7764 -65.1494
rradius 37.1973
rwrist 16.1903
rhand -10.6935 -9.69472
rfingers 7.12502
rthumb 15.3158 -39.1076
lclavicle 6.52014e-014 -4.45278e-014
lhumerus -15.9633 4.40081 66.0337
lradius 20.0352
lwrist -13.2842
lhand -20.6869 27.845
lfingers 7.12502
lthumb 5.67665 57.749
rfemur -116.314 -12.6899 58.8699
rtibia 141.649
rfoot -24.6229 -6.76962
rtoes -18.2045
lfemur -131.896 9.50502 -28.5765
ltibia 139.529
lfoot -29.3553 -3.2034
ltoes -9.49979
497
root -5.87322 8.83819 23.2828 37.2764 19.5286 -10.8193
lowerback 5.62584 1.84524 2.24237
upperback -1.82961 2.37003 -5.96854
thorax -4.72823 1.02372 -7.78389
lowerneck -18.8948 3.96377 1.22848
upperneck 30.2311 7.08952 -4.66074
head 13.621 2.60207 -0.828644
rclavicle 1.59028e-015 -6.52014e-014
rhumerus 25.5044 39.8323 -65.2473
rradius 37.268
rwrist 16.1598
rhand -10.6828 -9.61027
rfingers 7.12502
rthumb 15.326 -39.0224
lclavicle 1.59028e-015 -6.52014e-014
lhumerus -16.351 4.66757 65.6107
lradius 20.0525
lwrist -13.2739
lhand -21.0058 28.1405
lfingers 7.12502
lthumb 5.36873 58.0525
rfemur -116.244 -12.6576 59.0433
rtibia 142.211
rfoot -24.4595 -6.97894
rtoes -18.1679
lfemur -132.206 9.96561 -28.7084
ltibia 140.207
lfoot -29.3413 -3.57381
ltoes -9.99969
